HIERARCHY
ROOT newVegas:Hips
{
	OFFSET 0.000000 96.479958 0.000000
	CHANNELS 6 Xposition Yposition Zposition Xrotation Yrotation Zrotation
	JOINT newVegas:Pelvis
	{
		OFFSET 0.000000 0.000000 0.000000
		CHANNELS 3 Xrotation Yrotation Zrotation
		JOINT newVegas:LeftUpLeg
		{
			OFFSET 18.735201 -5.666702 -4.541200
			CHANNELS 3 Xrotation Yrotation Zrotation
			JOINT newVegas:LeftLeg
			{
				OFFSET -0.021200 -31.938179 0.493100
				CHANNELS 3 Xrotation Yrotation Zrotation
				JOINT newVegas:LeftFoot
				{
					OFFSET 0.021200 -31.938179 -4.336299
					CHANNELS 3 Xrotation Yrotation Zrotation
					JOINT newVegas:LeftToeBase
					{
						OFFSET 0.943001 -26.722000 15.023500
						CHANNELS 3 Xrotation Yrotation Zrotation
						End Site
						{
							OFFSET 0.000000 30.670183 0.000000
						}
					}
				}
				JOINT newVegas:Left_PantLeg
				{
					OFFSET 0.663870 -9.044666 -1.108900
					CHANNELS 3 Xrotation Yrotation Zrotation
					End Site
					{
						OFFSET 1.415995 20.635357 0.000000
					}
				}
			}
		}
		JOINT newVegas:RightUpLeg
		{
			OFFSET -18.735201 -5.666702 -4.541200
			CHANNELS 3 Xrotation Yrotation Zrotation
			JOINT newVegas:RightLeg
			{
				OFFSET 0.018946 -31.938133 0.493100
				CHANNELS 3 Xrotation Yrotation Zrotation
				JOINT newVegas:RightFoot
				{
					OFFSET -0.018946 -31.938126 -4.336299
					CHANNELS 3 Xrotation Yrotation Zrotation
					JOINT newVegas:RightToeBase
					{
						OFFSET -0.943001 -26.722004 15.023500
						CHANNELS 3 Xrotation Yrotation Zrotation
						End Site
						{
							OFFSET 0.000000 30.670187 0.000000
						}
					}
				}
				JOINT newVegas:Right_PantLeg
				{
					OFFSET -0.661674 -9.044716 -1.108900
					CHANNELS 3 Xrotation Yrotation Zrotation
					End Site
					{
						OFFSET -1.415958 20.635269 0.000000
					}
				}
			}
		}
	}
	JOINT newVegas:Spine
	{
		OFFSET 0.000000 10.199997 -0.299500
		CHANNELS 3 Xrotation Yrotation Zrotation
		JOINT newVegas:Spine1
		{
			OFFSET 0.000000 11.900002 -1.516600
			CHANNELS 3 Xrotation Yrotation Zrotation
			JOINT newVegas:Spine2
			{
				OFFSET 0.000000 13.600006 -2.842500
				CHANNELS 3 Xrotation Yrotation Zrotation
				JOINT newVegas:Neck
				{
					OFFSET 0.000000 9.624100 -2.890100
					CHANNELS 3 Xrotation Yrotation Zrotation
					JOINT newVegas:Head
					{
						OFFSET 0.000000 14.068802 -1.351900
						CHANNELS 3 Xrotation Yrotation Zrotation
						JOINT newVegas:Hair_Back
						{
							OFFSET 0.000000 3.231903 -17.524799
							CHANNELS 3 Xrotation Yrotation Zrotation
							End Site
							{
								OFFSET 0.000000 19.849884 0.000000
							}
						}
						JOINT newVegas:Hair_Front
						{
							OFFSET 0.000000 31.260406 4.573800
							CHANNELS 3 Xrotation Yrotation Zrotation
							JOINT newVegas:Hair_Front1
							{
								OFFSET 0.000000 2.284103 11.993300
								CHANNELS 3 Xrotation Yrotation Zrotation
								JOINT newVegas:Hair_Front2
								{
									OFFSET 0.000000 2.284103 11.993300
									CHANNELS 3 Xrotation Yrotation Zrotation
									End Site
									{
										OFFSET 0.000000 12.208862 0.000000
									}
								}
							}
						}
						JOINT newVegas:Jowel
						{
							OFFSET 0.000000 -7.458206 6.864100
							CHANNELS 3 Xrotation Yrotation Zrotation
							End Site
							{
								OFFSET 0.000000 19.849884 0.000000
							}
						}
					}
				}
				JOINT newVegas:LeftShoulder
				{
					OFFSET 15.263000 10.923401 -0.547700
					CHANNELS 3 Xrotation Yrotation Zrotation
					JOINT newVegas:LeftArm
					{
						OFFSET 25.438599 -2.830597 -13.032500
						CHANNELS 3 Xrotation Yrotation Zrotation
						JOINT newVegas:LeftForeArm
						{
							OFFSET 29.960503 0.000000 0.000000
							CHANNELS 3 Xrotation Yrotation Zrotation
							JOINT newVegas:LeftHand
							{
								OFFSET 27.849251 0.000000 0.000000
								CHANNELS 3 Xrotation Yrotation Zrotation
								JOINT newVegas:LeftHandThumb1
								{
									OFFSET 4.487587 -3.305161 6.305391
									CHANNELS 3 Xrotation Yrotation Zrotation
									JOINT newVegas:LeftHandThumb2
									{
										OFFSET 5.480453 -3.164139 3.164143
										CHANNELS 3 Xrotation Yrotation Zrotation
										JOINT newVegas:LeftHandThumb3
										{
											OFFSET 5.159721 -2.978973 2.978967
											CHANNELS 3 Xrotation Yrotation Zrotation
											End Site
											{
												OFFSET 2.494507 5.926697 1.738678
											}
										}
									}
								}
								JOINT newVegas:LeftHandIndex1
								{
									OFFSET 18.578728 -0.527832 5.208049
									CHANNELS 3 Xrotation Yrotation Zrotation
									JOINT newVegas:LeftHandIndex2
									{
										OFFSET 3.192009 0.000000 0.000000
										CHANNELS 3 Xrotation Yrotation Zrotation
										JOINT newVegas:LeftHandIndex3
										{
											OFFSET 3.835129 0.000000 0.000000
											CHANNELS 3 Xrotation Yrotation Zrotation
											End Site
											{
												OFFSET -0.034599 3.816971 0.371180
											}
										}
									}
								}
								JOINT newVegas:LeftHandMiddle1
								{
									OFFSET 18.476105 0.000000 0.000000
									CHANNELS 3 Xrotation Yrotation Zrotation
									JOINT newVegas:LeftHandMiddle2
									{
										OFFSET 3.324875 0.000000 0.000000
										CHANNELS 3 Xrotation Yrotation Zrotation
										JOINT newVegas:LeftHandMiddle3
										{
											OFFSET 4.596550 0.000000 0.000000
											CHANNELS 3 Xrotation Yrotation Zrotation
											End Site
											{
												OFFSET 0.057701 4.578827 0.399218
											}
										}
									}
								}
								JOINT newVegas:LeftHandRing1
								{
									OFFSET 17.732719 0.121887 -4.201567
									CHANNELS 3 Xrotation Yrotation Zrotation
									JOINT newVegas:LeftHandRing2
									{
										OFFSET 2.733170 0.000000 0.000000
										CHANNELS 3 Xrotation Yrotation Zrotation
										JOINT newVegas:LeftHandRing3
										{
											OFFSET 3.178268 0.000000 0.000000
											CHANNELS 3 Xrotation Yrotation Zrotation
											End Site
											{
												OFFSET 0.119102 3.170624 0.185394
											}
										}
									}
								}
								JOINT newVegas:LeftHandPinky1
								{
									OFFSET 15.989624 -0.606689 -7.535461
									CHANNELS 3 Xrotation Yrotation Zrotation
									JOINT newVegas:LeftHandPinky2
									{
										OFFSET 2.538986 0.000000 0.000000
										CHANNELS 3 Xrotation Yrotation Zrotation
										JOINT newVegas:LeftHandPinky3
										{
											OFFSET 2.593102 0.000000 0.000000
											CHANNELS 3 Xrotation Yrotation Zrotation
											End Site
											{
												OFFSET -0.150902 2.584198 0.152708
											}
										}
									}
								}
							}
							JOINT newVegas:Left_Sleeve
							{
								OFFSET 0.267448 -0.649796 0.577675
								CHANNELS 3 Xrotation Yrotation Zrotation
								End Site
								{
									OFFSET 0.000000 15.991241 0.000000
								}
							}
							JOINT newVegas:Left_CapeC
							{
								OFFSET 15.715958 -8.608795 -6.935905
								CHANNELS 3 Xrotation Yrotation Zrotation
								JOINT newVegas:Left_CapeC1
								{
									OFFSET 0.000000 -8.688499 0.000000
									CHANNELS 3 Xrotation Yrotation Zrotation
									End Site
									{
										OFFSET 0.000000 8.688499 0.000000
									}
								}
							}
						}
						JOINT newVegas:Left_CapeB
						{
							OFFSET 26.118385 -8.608795 -7.079235
							CHANNELS 3 Xrotation Yrotation Zrotation
							JOINT newVegas:Left_CapeB1
							{
								OFFSET 0.000000 -8.688499 0.000000
								CHANNELS 3 Xrotation Yrotation Zrotation
								End Site
								{
									OFFSET 0.000000 8.688499 0.000000
								}
							}
						}
						JOINT newVegas:Left_CapeA
						{
							OFFSET 5.115639 -8.608795 -10.395809
							CHANNELS 3 Xrotation Yrotation Zrotation
							JOINT newVegas:Left_CapeA1
							{
								OFFSET 0.000000 -8.688499 0.000000
								CHANNELS 3 Xrotation Yrotation Zrotation
								End Site
								{
									OFFSET 0.000000 8.688499 0.000000
								}
							}
						}
					}
				}
				JOINT newVegas:RightShoulder
				{
					OFFSET -15.263000 10.923401 -0.547700
					CHANNELS 3 Xrotation Yrotation Zrotation
					JOINT newVegas:RightArm
					{
						OFFSET -25.438599 -2.830597 -13.032500
						CHANNELS 3 Xrotation Yrotation Zrotation
						JOINT newVegas:RightForeArm
						{
							OFFSET -29.960503 0.000000 0.000000
							CHANNELS 3 Xrotation Yrotation Zrotation
							JOINT newVegas:RightHand
							{
								OFFSET -27.849251 0.000000 0.000000
								CHANNELS 3 Xrotation Yrotation Zrotation
								JOINT newVegas:RightHandThumb1
								{
									OFFSET -4.487587 -3.305161 6.305391
									CHANNELS 3 Xrotation Yrotation Zrotation
									JOINT newVegas:RightHandThumb2
									{
										OFFSET -5.480453 -3.164139 3.164143
										CHANNELS 3 Xrotation Yrotation Zrotation
										JOINT newVegas:RightHandThumb3
										{
											OFFSET -5.159721 -2.978973 2.978967
											CHANNELS 3 Xrotation Yrotation Zrotation
											End Site
											{
												OFFSET -2.494507 5.926697 1.738678
											}
										}
									}
								}
								JOINT newVegas:RightHandIndex1
								{
									OFFSET -18.578728 -0.527832 5.208049
									CHANNELS 3 Xrotation Yrotation Zrotation
									JOINT newVegas:RightHandIndex2
									{
										OFFSET -3.192009 0.000000 0.000000
										CHANNELS 3 Xrotation Yrotation Zrotation
										JOINT newVegas:RightHandIndex3
										{
											OFFSET -3.835129 0.000000 0.000000
											CHANNELS 3 Xrotation Yrotation Zrotation
											End Site
											{
												OFFSET 0.034599 3.816971 0.371180
											}
										}
									}
								}
								JOINT newVegas:RightHandMiddle1
								{
									OFFSET -18.476105 0.000000 0.000000
									CHANNELS 3 Xrotation Yrotation Zrotation
									JOINT newVegas:RightHandMiddle2
									{
										OFFSET -3.324875 0.000000 0.000000
										CHANNELS 3 Xrotation Yrotation Zrotation
										JOINT newVegas:RightHandMiddle3
										{
											OFFSET -4.596550 0.000000 0.000000
											CHANNELS 3 Xrotation Yrotation Zrotation
											End Site
											{
												OFFSET -0.057701 4.578827 0.399218
											}
										}
									}
								}
								JOINT newVegas:RightHandRing1
								{
									OFFSET -17.732719 0.121887 -4.201567
									CHANNELS 3 Xrotation Yrotation Zrotation
									JOINT newVegas:RightHandRing2
									{
										OFFSET -2.733170 0.000000 0.000000
										CHANNELS 3 Xrotation Yrotation Zrotation
										JOINT newVegas:RightHandRing3
										{
											OFFSET -3.178268 0.000000 0.000000
											CHANNELS 3 Xrotation Yrotation Zrotation
											End Site
											{
												OFFSET -0.119102 3.170624 0.185394
											}
										}
									}
								}
								JOINT newVegas:RightHandPinky1
								{
									OFFSET -15.989624 -0.606689 -7.535461
									CHANNELS 3 Xrotation Yrotation Zrotation
									JOINT newVegas:RightHandPinky2
									{
										OFFSET -2.538986 0.000000 0.000000
										CHANNELS 3 Xrotation Yrotation Zrotation
										JOINT newVegas:RightHandPinky3
										{
											OFFSET -2.593102 0.000000 0.000000
											CHANNELS 3 Xrotation Yrotation Zrotation
											End Site
											{
												OFFSET 0.150902 2.584198 0.152708
											}
										}
									}
								}
							}
							JOINT newVegas:Right_CapeC
							{
								OFFSET -15.715958 -8.608795 -6.935905
								CHANNELS 3 Xrotation Yrotation Zrotation
								JOINT newVegas:Right_CapeC1
								{
									OFFSET 0.000000 -8.688499 0.000000
									CHANNELS 3 Xrotation Yrotation Zrotation
									End Site
									{
										OFFSET 0.000000 8.688499 0.000000
									}
								}
							}
							JOINT newVegas:Right_Sleeve
							{
								OFFSET -0.267448 -0.649994 0.577675
								CHANNELS 3 Xrotation Yrotation Zrotation
								End Site
								{
									OFFSET 0.000000 15.991302 0.000000
								}
							}
						}
						JOINT newVegas:Right_CapeA
						{
							OFFSET -5.115540 -8.608795 -10.395824
							CHANNELS 3 Xrotation Yrotation Zrotation
							JOINT newVegas:Right_CapeA1
							{
								OFFSET 0.000000 -8.688499 0.000000
								CHANNELS 3 Xrotation Yrotation Zrotation
								End Site
								{
									OFFSET 0.000000 8.688499 0.000000
								}
							}
						}
						JOINT newVegas:Right_CapeB
						{
							OFFSET -26.118187 -8.608795 -7.079266
							CHANNELS 3 Xrotation Yrotation Zrotation
							JOINT newVegas:Right_CapeB1
							{
								OFFSET 0.000000 -8.688499 0.000000
								CHANNELS 3 Xrotation Yrotation Zrotation
								End Site
								{
									OFFSET 0.000000 8.688499 0.000000
								}
							}
						}
					}
				}
				JOINT newVegas:Left_Collar
				{
					OFFSET 18.625099 8.655502 8.828100
					CHANNELS 3 Xrotation Yrotation Zrotation
					JOINT newVegas:Left_Collar1
					{
						OFFSET 14.783401 10.540405 -1.259500
						CHANNELS 3 Xrotation Yrotation Zrotation
						End Site
						{
							OFFSET 0.000000 18.199875 0.000000
						}
					}
				}
				JOINT newVegas:Collar_Back
				{
					OFFSET 0.000000 15.630707 -20.132601
					CHANNELS 3 Xrotation Yrotation Zrotation
					End Site
					{
						OFFSET 0.000000 22.523010 0.000000
					}
				}
				JOINT newVegas:Left_Peck
				{
					OFFSET 17.239599 -5.132599 25.482599
					CHANNELS 3 Xrotation Yrotation Zrotation
					End Site
					{
						OFFSET 0.000000 22.523010 0.000000
					}
				}
				JOINT newVegas:Right_Peck
				{
					OFFSET -17.239599 -5.132202 25.482599
					CHANNELS 3 Xrotation Yrotation Zrotation
					End Site
					{
						OFFSET 0.000000 22.523010 0.000000
					}
				}
				JOINT newVegas:Right_Collar
				{
					OFFSET -18.625099 8.655792 8.828100
					CHANNELS 3 Xrotation Yrotation Zrotation
					JOINT newVegas:Right_Collar1
					{
						OFFSET -14.783401 10.539993 -1.259500
						CHANNELS 3 Xrotation Yrotation Zrotation
						End Site
						{
							OFFSET 0.000000 18.199631 0.000000
						}
					}
				}
			}
		}
		JOINT newVegas:Belly
		{
			OFFSET 0.000000 -6.540398 9.014299
			CHANNELS 3 Xrotation Yrotation Zrotation
			End Site
			{
				OFFSET 0.000000 11.566666 0.000000
			}
		}
	}
	JOINT newVegas:ElvisFacialAnim_Joint
	{
		OFFSET 1.000000 -95.330101 -8.825800
		CHANNELS 3 Xrotation Yrotation Zrotation
		End Site
		{
			OFFSET 0.000000 35.315800 0.000000
		}
	}
}
MOTION
Frames: 4
Frame Time: 0.033333
-0.103865 93.062210 4.039485 -4.714798 -3.964997 2.253914 0.000000 -0.000000 0.000000 -17.475985 11.081656 8.705168 20.534380 6.576510 1.737037 2.642542 0.245624 -7.901497 0.000000 -0.000002 -0.000000 0.000000 -0.000001 -0.000000 5.092820 -15.778400 -5.082030 22.402739 -7.854297 -3.070544 -21.617081 -9.583174 8.758944 -0.000000 0.000000 -0.000000 0.000001 -0.000001 0.000001 8.733438 3.078230 -2.742805 1.716331 0.924014 -0.426555 1.526780 0.915630 -0.442695 -0.031052 -1.154588 -0.513866 -0.031046 -1.154588 -0.513866 -0.000000 -0.000000 -0.000000 -0.031052 -1.154588 -0.513867 -0.031050 -1.154589 -0.513866 0.000000 -0.000000 -0.000000 -0.000000 -0.000000 -0.000000 2.097280 -11.684744 -13.454896 6.264182 -14.980777 -57.169786 -0.000004 -26.675516 0.000005 12.382683 8.824089 5.103945 -18.128958 6.669847 -0.334164 12.065220 28.325935 3.564909 0.000003 0.000002 0.000001 1.006431 5.543756 -32.912930 0.773865 2.911877 -29.759776 -0.000003 0.000000 -0.000002 1.617140 6.327196 -42.661689 1.322619 3.708998 -39.240970 -0.000001 -0.000003 0.000000 2.896157 7.364418 -58.485851 1.138707 3.472140 -36.304767 -0.000000 -0.000001 0.000000 2.880001 7.354585 -58.682048 1.181177 3.529115 -37.000514 -0.000001 -0.000003 0.000001 0.000001 0.000000 0.000000 0.000001 0.000000 0.000000 -0.000000 0.000001 0.000000 0.000000 0.000000 0.000001 0.000000 0.000000 0.000001 0.000000 0.000000 0.000001 0.000000 -0.000001 0.000001 0.778403 16.672490 17.869800 2.140567 10.253143 58.075739 -0.000001 11.805783 0.000014 -8.684522 2.041861 -7.594261 -20.000027 -18.867003 -1.194250 -7.312647 -18.772679 -8.215366 0.000001 -0.000003 -0.000001 0.566720 -4.417434 27.253490 1.044770 -2.941295 39.103731 0.000001 0.000003 -0.000001 1.342250 -5.500975 43.721465 1.013472 -2.902414 38.489943 0.000001 -0.000002 -0.000002 1.956281 -6.036801 53.771416 0.637444 -2.353731 30.302920 0.000000 0.000001 0.000001 2.396392 -6.336649 55.940250 0.649262 -2.373818 30.589480 0.000000 -0.000000 0.000002 -0.000001 0.000000 -0.000000 -0.000001 -0.000001 -0.000000 -0.000001 0.000000 0.000001 -0.000000 -0.000001 0.000001 0.000000 -0.000001 0.000001 -0.000000 -0.000001 0.000001 0.000000 -0.000001 0.000001 0.000001 -0.000000 -0.000000 0.000001 -0.000000 -0.000000 0.000001 -0.000000 -0.000000 0.000001 -0.000000 -0.000000 0.000001 -0.000000 -0.000000 0.000001 -0.000000 -0.000000 0.000001 -0.000000 -0.000000 0.000000 0.000000 -0.000000 0.000000 -0.000000 0.000000 
-0.112617 93.053314 4.034909 -4.719864 -3.835936 2.385554 -0.000000 0.000001 -0.000000 -17.364071 11.109829 8.537834 20.271791 6.480099 1.735616 2.807059 0.239085 -7.861081 0.000000 0.000000 -0.000000 -0.000000 -0.000000 -0.000000 5.000726 -15.933469 -5.226851 22.623859 -7.623364 -3.071279 -21.782542 -9.793212 8.694932 -0.000000 0.000000 -0.000000 -0.000000 -0.000000 0.000000 8.593491 2.561238 -2.502876 1.716329 0.771875 -0.438030 1.526781 0.765160 -0.451943 -0.042087 -1.111436 -0.496522 -0.042093 -1.111436 -0.496524 0.000000 -0.000000 -0.000000 -0.042211 -1.111436 -0.496524 -0.042150 -1.111453 -0.496521 0.000000 0.000000 0.000000 0.000000 -0.000000 -0.000000 2.100966 -11.358862 -13.505460 6.323488 -15.154228 -56.713731 -0.000001 -27.336280 0.000001 11.502874 8.832093 5.092840 -18.023114 6.268623 -0.321840 12.468929 28.229184 2.780648 0.000003 0.000000 -0.000004 0.931790 5.429076 -32.949246 0.846827 3.035794 -31.166276 0.000002 -0.000003 0.000005 1.653989 6.366652 -43.457150 1.409425 3.812598 -40.564394 -0.000002 0.000001 -0.000000 2.981829 7.414753 -59.460512 1.201197 3.555458 -37.324351 0.000000 -0.000004 -0.000001 3.021121 7.437167 -59.987284 1.261445 3.632973 -38.285563 -0.000001 -0.000007 -0.000001 -0.000002 -0.000002 0.000001 -0.000002 -0.000002 0.000001 -0.000003 -0.000001 0.000001 0.000002 0.000000 -0.000000 0.000002 0.000000 -0.000000 0.000002 0.000000 -0.000000 0.000000 0.000000 -0.000001 0.963160 16.877247 16.423405 2.756132 7.185001 59.138298 -0.000002 16.190487 -0.000009 -10.022962 1.465466 -7.558280 -19.450681 -16.212163 1.342416 -7.188562 -18.659498 -8.662226 0.000001 -0.000000 -0.000001 0.478852 -4.239657 25.799626 0.842312 -2.673339 34.972095 0.000004 0.000002 0.000003 1.232566 -5.382866 42.048332 0.847209 -2.680296 35.076713 -0.000002 -0.000001 -0.000000 1.805266 -5.922827 50.470870 0.598504 -2.285860 29.340819 0.000001 0.000001 0.000000 2.219015 -6.239610 52.407208 0.588612 -2.268192 29.092200 -0.000003 -0.000004 -0.000001 -0.000001 -0.000001 -0.000000 -0.000001 -0.000000 0.000000 -0.000001 -0.000001 0.000000 0.000003 0.000001 -0.000000 0.000003 0.000001 0.000000 0.000003 0.000001 -0.000000 0.000003 0.000001 0.000000 0.000000 -0.000000 0.000000 0.000000 -0.000000 0.000000 0.000000 -0.000000 0.000000 0.000000 -0.000000 0.000000 0.000000 -0.000000 0.000000 0.000000 -0.000000 0.000000 0.000000 -0.000000 0.000000 -0.000000 0.000000 0.000000 -0.000000 0.000001 -0.000000 
-0.117174 93.027832 4.023596 -4.737739 -3.505459 2.555132 -0.000001 -0.000000 0.000000 -17.329985 11.148026 8.320921 20.005733 6.189796 1.729197 3.039704 0.225009 -7.766197 0.000000 0.000000 -0.000000 0.000000 -0.000001 0.000000 4.959196 -16.094759 -5.343452 22.890635 -7.600692 -3.071736 -22.011246 -10.021087 8.682962 0.000000 -0.000002 0.000000 -0.000000 0.000001 -0.000000 8.441629 2.044563 -2.256205 1.716331 0.619171 -0.450352 1.526781 0.614155 -0.462102 -0.059844 -1.068377 -0.477844 -0.059840 -1.068377 -0.477845 0.000000 -0.000000 -0.000000 -0.060034 -1.068386 -0.477846 -0.059687 -1.068375 -0.477842 -0.000000 -0.000000 -0.000000 0.000000 -0.000000 -0.000000 2.108241 -11.015127 -13.542721 6.361907 -15.348446 -56.269069 -0.000004 -28.008251 -0.000031 10.692776 8.830015 5.042353 -17.918335 5.867392 -0.307351 12.944993 28.185797 1.898919 0.000000 0.000001 -0.000003 0.853592 5.308645 -32.915167 0.929698 3.168574 -32.697611 -0.000002 -0.000003 -0.000001 1.694987 6.409907 -44.306563 1.508049 3.924619 -42.026099 0.000001 -0.000005 -0.000003 3.077239 7.468541 -60.534942 1.272841 3.647335 -38.464958 0.000000 -0.000001 -0.000000 3.177276 7.522701 -61.436117 1.355351 3.748629 -39.744345 0.000000 -0.000002 0.000000 0.000002 0.000000 -0.000002 0.000002 0.000000 -0.000002 0.000001 0.000000 -0.000002 0.000001 0.000000 0.000002 0.000002 -0.000001 0.000000 0.000001 0.000000 0.000002 0.000002 -0.000000 0.000002 1.218583 17.103743 14.520543 5.273718 3.091895 60.475465 0.000010 23.049995 -0.000034 -16.276978 1.549229 -11.318347 -19.017601 -13.172030 4.123246 -7.062285 -18.546067 -9.108136 -0.000000 0.000001 0.000001 0.391959 -4.045588 24.165136 0.640943 -2.359717 30.388079 0.000001 0.000001 0.000004 1.112694 -5.243954 40.099235 0.666446 -2.402639 31.002003 0.000001 -0.000000 0.000001 1.625658 -5.775522 46.653815 0.551624 -2.200444 28.143243 -0.000001 -0.000001 -0.000002 2.004271 -6.107577 48.303760 0.519884 -2.140082 27.305085 0.000000 0.000005 0.000002 0.000002 -0.000001 0.000000 0.000001 -0.000001 0.000000 0.000002 -0.000001 0.000000 0.000001 0.000000 -0.000001 0.000001 0.000000 -0.000001 0.000001 0.000000 -0.000001 0.000001 -0.000000 -0.000001 0.000000 -0.000000 0.000000 0.000000 -0.000000 0.000000 0.000000 -0.000000 0.000000 0.000000 -0.000000 0.000000 0.000000 -0.000000 0.000000 0.000000 -0.000000 0.000000 0.000000 -0.000000 0.000000 -0.000000 0.000000 0.000000 -0.000001 -0.000000 0.000000 
-0.118487 92.992043 4.008029 -4.762814 -3.054312 2.741656 0.000000 -0.000000 0.000000 -17.347610 11.192361 8.078904 19.748181 5.780794 1.727948 3.306909 0.207610 -7.648285 -0.000000 0.000002 -0.000000 -0.000000 -0.000002 0.000000 4.958510 -16.260807 -5.434122 23.167807 -7.703683 -3.071647 -22.270192 -10.258048 8.702955 -0.000000 0.000000 -0.000000 0.000000 0.000002 -0.000000 8.291897 1.527983 -2.009780 1.716330 0.466388 -0.462797 1.526781 0.463073 -0.472393 -0.078029 -1.029164 -0.459934 -0.078027 -1.029164 -0.459934 -0.000000 0.000000 0.000000 -0.078030 -1.029164 -0.459934 -0.078026 -1.029163 -0.459935 -0.000000 -0.000000 -0.000000 -0.000000 0.000000 -0.000000 2.115882 -10.671349 -13.579442 6.399238 -15.542705 -55.824338 0.000015 -28.680241 0.000034 9.882835 8.831729 4.992280 -17.814575 5.466149 -0.290684 13.480443 28.183369 0.937112 -0.000000 -0.000001 0.000001 0.773020 5.183349 -32.823570 1.021992 3.307691 -34.331232 -0.000003 -0.000002 -0.000001 1.739605 6.456124 -45.200116 1.617480 4.042441 -43.601124 -0.000003 0.000000 -0.000001 3.181019 7.524416 -61.691109 1.352777 3.745548 -39.704699 0.000000 -0.000001 -0.000001 3.346558 7.608763 -63.002655 1.461767 3.872771 -41.345454 0.000001 -0.000003 -0.000001 0.000001 0.000002 -0.000001 0.000001 0.000002 -0.000001 0.000000 0.000002 -0.000001 0.000001 0.000000 -0.000000 0.000002 -0.000001 -0.000002 0.000001 0.000000 -0.000000 0.000000 0.000000 -0.000000 1.444832 16.845432 12.937794 10.162257 0.082764 61.139906 0.000007 30.213642 -0.000023 -25.821059 0.171678 -16.514320 -18.680743 -10.007790 6.933032 -6.933857 -18.432416 -9.553117 0.000001 -0.000000 -0.000001 0.311692 -3.845124 22.486038 0.461318 -2.022704 25.692658 -0.000001 0.000000 -0.000001 0.995055 -5.096230 38.081802 0.499833 -2.100837 26.763318 0.000001 0.000001 -0.000002 1.443566 -5.611275 42.708770 0.504378 -2.109806 26.886848 -0.000001 -0.000001 0.000000 1.782820 -5.954081 44.058880 0.452632 -2.004571 25.445723 -0.000001 -0.000002 0.000002 -0.000001 0.000001 -0.000000 -0.000003 0.000001 0.000000 -0.000001 0.000001 -0.000000 -0.000001 -0.000001 -0.000001 -0.000001 -0.000002 -0.000000 -0.000001 -0.000001 -0.000001 -0.000001 -0.000002 -0.000000 0.000000 -0.000000 0.000000 0.000000 -0.000000 0.000000 0.000000 -0.000000 0.000000 0.000000 -0.000000 0.000000 0.000000 -0.000000 0.000000 0.000000 -0.000000 0.000000 0.000000 -0.000000 0.000000 0.000000 0.000000 -0.000000 0.000000 -0.000000 0.000000 
